# Blender v2.93.4 OBJ File: ''
# www.blender.org
mtllib tote_box.mtl
o totebox_600x400x212-refine_Pocket
v 300.000000 0.000000 -200.000000
v -300.000000 0.000000 -200.000000
v -300.000000 212.000000 -200.000000
v 300.000000 212.000000 -200.000000
v -300.000000 0.000000 200.000000
v -300.000000 212.000000 200.000000
v 300.000000 0.000000 200.000000
v 300.000000 212.000000 200.000000
v 277.000000 212.000000 -177.000000
v 277.000000 212.000000 177.000000
v -277.000000 212.000000 177.000000
v -277.000000 212.000000 -177.000000
v -277.000000 4.000000 -177.000000
v 277.000000 4.000000 -177.000000
v 277.000000 4.000000 177.000000
v -277.000000 4.000000 177.000000
vn 0.0000 0.0000 -1.0000
vn -1.0000 0.0000 0.0000
vn 1.0000 0.0000 0.0000
vn 0.0000 -1.0000 0.0000
vn 0.0000 1.0000 0.0000
vn 0.0000 0.0000 1.0000
usemtl None
s off
f 1//1 2//1 3//1
f 1//1 3//1 4//1
f 2//2 5//2 6//2
f 2//2 6//2 3//2
f 7//3 1//3 4//3
f 7//3 4//3 8//3
f 2//4 1//4 7//4
f 2//4 7//4 5//4
f 8//5 9//5 10//5
f 8//5 4//5 9//5
f 8//5 11//5 6//5
f 10//5 11//5 8//5
f 11//5 12//5 6//5
f 12//5 3//5 6//5
f 4//5 3//5 9//5
f 9//5 3//5 12//5
f 5//6 7//6 8//6
f 5//6 8//6 6//6
f 9//6 12//6 13//6
f 9//6 13//6 14//6
f 10//2 9//2 14//2
f 10//2 14//2 15//2
f 11//1 10//1 15//1
f 11//1 15//1 16//1
f 12//3 11//3 16//3
f 12//3 16//3 13//3
f 14//5 13//5 15//5
f 15//5 13//5 16//5
